<svg id="artwork" xmlns="http://www.w3.org/2000/svg" viewBox="0 0 1120 1100"><defs><linearGradient id="linear-gradient" x1="560.03" y1="921.2" x2="560.03" y2="197.81" gradientUnits="userSpaceOnUse"><stop offset="0" stop-color="#009ee2"/><stop offset=".99" stop-color="#2d2e82"/></linearGradient><style>.cls-1,.cls-2{fill:none}.cls-2{stroke:#fff;stroke-miterlimit:10;stroke-width:15.83px}.cls-4{fill:#00f2d5}.cls-5{fill:#ffde52}.cls-6{fill:#ff3956}.cls-7{fill:#fff}.cls-8{fill:#12339e}</style></defs><path class="cls-5" d="M577 882.44c6.21 0 11.83 2.51 16.07 6.49l269.29-155.47c-.32-1.63-.48-3.31-.45-5.05 0-10.87-7.72-19.84 1.9-22.9V394.46c-9.83-3.02-2.08-12.02-1.9-22.94 0-1.72.19-3.39.52-5.01L593.22 211.08c-4.26 4.04-9.95 6.54-16.22 6.54-13.42 0-24-10.69-23.78-24.11 0-13.42 10.69-24.11 23.78-24.11 13.09 0 23.78 10.91 23.78 24.11 0 1.79-.22 3.52-.58 5.2l269.11 155.37c4.27-4.12 10.03-6.67 16.38-6.67 13.09 0 23.78 10.91 23.78 24.11 0 10.87-7.06 19.84-16.68 22.9v311.11c9.62 3.11 16.68 12.19 16.68 22.88 0 13.42-10.69 24.11-23.78 24.11-6.47 0-12.24-2.53-16.5-6.6L600.15 901.25c.39 1.71.63 3.48.63 5.3 0 13.42-10.69 24.11-23.78 24.11-13.42 0-24-10.69-23.78-24.11 0-13.42 10.69-24.11 23.78-24.11Z"/><path class="cls-6" d="M543 882.44c-6.21 0-11.83 2.51-16.07 6.49L289.46 733.46c.32-1.63.48-3.31.45-5.05 0-10.87 7.72-19.84-1.9-22.9V394.46c9.83-3.02 2.08-12.02 1.9-22.94 0-1.72-.19-3.39-.52-5.01l237.39-155.43c4.26 4.04 9.95 6.54 16.22 6.54 13.42 0 24-10.69 23.78-24.11 0-13.42-10.69-24.11-23.78-24.11s-23.78 10.91-23.78 24.11c0 1.79.22 3.52.58 5.2L250.69 354.08c-4.27-4.12-10.03-6.67-16.38-6.67-13.09 0-23.78 10.91-23.78 24.11 0 10.87 7.06 19.84 16.68 22.9v311.11c-9.62 3.11-16.68 12.19-16.68 22.88 0 13.42 10.69 24.11 23.78 24.11 6.47 0 12.24-2.53 16.5-6.6l269.04 155.33c-.39 1.71-.63 3.48-.63 5.3 0 13.42 10.69 24.11 23.78 24.11s24-10.69 23.78-24.11c0-13.42-10.69-24.11-23.78-24.11Z"/><path d="M868.73 711.48V388.56c9.41 0 17.04-7.63 17.04-17.04s-7.63-17.04-17.04-17.04c-6.38 0-11.87 3.54-14.79 8.73l-279.21-161.2c1.45-2.51 2.34-5.38 2.34-8.49 0-9.41-7.63-17.04-17.04-17.04s-17.04 7.63-17.04 17.04c0 3.11.89 5.98 2.34 8.49l-279.21 161.2c-2.92-5.18-8.41-8.72-14.79-8.72-9.41 0-17.04 7.63-17.04 17.04s7.63 17.04 17.04 17.04v322.91c-9.41 0-17.04 7.63-17.04 17.04s7.63 17.04 17.04 17.04c6.41 0 11.92-3.58 14.84-8.81l279.16 161.17c-1.45 2.51-2.34 5.38-2.34 8.49 0 9.41 7.63 17.04 17.04 17.04s17.04-7.63 17.04-17.04c0-3.11-.89-5.98-2.34-8.49l279.16-161.17c2.91 5.23 8.43 8.81 14.84 8.81 9.41 0 17.04-7.63 17.04-17.04s-7.63-17.04-17.04-17.04Z" style="fill:url(#linear-gradient)"/><path class="cls-7" d="M556.97 685.8v-61.33l22.79-14.02c2.85-1.76 6.53.3 6.53 3.65v49.03a9.94 9.94 0 0 1-4.97 8.61l-24.34 14.05ZM556.97 845.84v-61.33l22.79-14.02c2.85-1.76 6.53.3 6.53 3.65v49.03a9.94 9.94 0 0 1-4.97 8.61l-24.34 14.05ZM251.33 716.74c-6.65 0-11.67 5.45-11.67 11.78 0 6.65 5.45 11.78 11.67 11.78S263 734.85 263 728.52c.22-6.55-5.02-11.78-11.67-11.78Zm0 35.78c-13.09 0-23.78-10.69-23.78-24.11s10.69-24.11 23.78-24.11 23.78 10.69 23.78 24.11c.22 13.42-10.36 24.11-23.78 24.11ZM868.72 716.74c-6.65 0-11.67 5.45-11.67 11.78 0 6.65 5.45 11.78 11.67 11.78s11.67-5.45 11.67-11.78c.22-6.55-5.02-11.78-11.67-11.78Zm0 35.78c-13.09 0-23.78-10.69-23.78-24.11s10.69-24.11 23.78-24.11 23.78 10.69 23.78 24.11c.22 13.42-10.36 24.11-23.78 24.11ZM251.33 359.85c-6.65 0-11.67 5.45-11.67 11.78 0 6.65 5.45 11.78 11.67 11.78S263 377.96 263 371.63c.22-6.55-5.02-11.78-11.67-11.78Zm0 35.78c-13.09 0-23.78-10.69-23.78-24.11s10.69-24.11 23.78-24.11 23.78 10.69 23.78 24.11c.22 13.42-10.36 24.11-23.78 24.11ZM369.73 662.17c-6.65 0-11.67 5.45-11.67 11.78 0 6.65 5.45 11.78 11.67 11.78s11.67-5.45 11.67-11.78c.22-6.55-5.02-11.78-11.67-11.78Zm0 35.78c-13.09 0-23.78-10.69-23.78-24.11s10.69-24.11 23.78-24.11 23.78 10.69 23.78 24.11c.22 13.42-10.36 24.11-23.78 24.11ZM868.72 359.85c-6.65 0-11.67 5.45-11.67 11.78 0 6.65 5.45 11.78 11.67 11.78s11.67-5.45 11.67-11.78c.22-6.55-5.02-11.78-11.67-11.78Zm0 35.78c-13.09 0-23.78-10.69-23.78-24.11s10.69-24.11 23.78-24.11 23.78 10.69 23.78 24.11c.22 13.42-10.36 24.11-23.78 24.11ZM560.03 894.88c-6.65 0-11.67 5.45-11.67 11.78 0 6.65 5.45 11.78 11.67 11.78s11.67-5.45 11.67-11.78c.22-6.55-5.02-11.78-11.67-11.78Zm0 35.78c-13.09 0-23.78-10.69-23.78-24.11s10.69-24.11 23.78-24.11 23.78 10.69 23.78 24.11c.22 13.42-10.36 24.11-23.78 24.11ZM560.03 538.07c-6.65 0-11.67 5.45-11.67 11.78 0 6.65 5.45 11.78 11.67 11.78s11.67-5.45 11.67-11.78c.22-6.55-5.02-11.78-11.67-11.78Zm0 35.78c-13.09 0-23.78-10.69-23.78-24.11s10.69-24.11 23.78-24.11 23.78 10.69 23.78 24.11c.22 13.42-10.36 24.11-23.78 24.11ZM560.03 181.84c-6.65 0-11.67 5.45-11.67 11.78 0 6.65 5.45 11.78 11.67 11.78s11.67-5.45 11.67-11.78c.22-6.55-5.02-11.78-11.67-11.78Zm0 35.78c-13.09 0-23.78-10.69-23.78-24.11s10.69-24.11 23.78-24.11 23.78 10.69 23.78 24.11c.22 13.42-10.36 24.11-23.78 24.11Z"/><path class="cls-7" d="m578.28 195.85-7.1 12.3 128.95 74.45h28.41l-150.26-86.75zM857.49 357.05l-93.8-54.15h-28.41l115.11 66.45 7.1-12.3zM753.41 282.6H725l35.15 20.3h28.41l-35.15-20.3z"/><path class="cls-8" d="M773.23 282.6h-20l35.15 20.3h19.99l-35.14-20.3z"/><path class="cls-4" d="M701.34 282.6h-28.41l35.15 20.3h28.41l-35.15-20.3z"/><path class="cls-7" d="m269.72 730.61-7.1 12.3 65.92 38.06h28.41l-87.23-50.36zM548.88 891.78 392.1 801.26h-28.41l178.09 102.82 7.1-12.3zM380.63 780.97h-28.41l35.15 20.29h28.4l-35.14-20.29z"/><path class="cls-8" d="M391.39 780.97h-17.17l35.15 20.29h17.17l-35.15-20.29z"/><path class="cls-5" d="M321.8 780.97h-38.41l35.15 20.29h38.41l-35.15-20.29z"/><path class="cls-7" d="m857.44 742.91-7.1-12.3-174.46 100.72h28.41l153.15-88.42zM571.18 891.78l7.1 12.3 90.87-52.46h-28.41l-69.56 40.16z"/><path class="cls-7" d="m691.13 831.33-35.14 20.29h28.4l35.15-20.29h-28.41z"/><path class="cls-4" d="m718.35 831.33-35.15 20.29h28.41l35.15-20.29h-28.41z"/><path class="cls-7" d="m856.52 385.98-6.42-11.11-87.39 50.45h25.67l68.14-39.34zM571.09 535.95l6.41 11.12 175.73-101.46h-25.67l-156.47 90.34zM796.51 425.32l-35.15 20.29h25.67l35.15-20.29h-25.67z"/><path class="cls-5" d="m667.97 425.32-35.15 20.29h45.08l35.14-20.29h-45.07z"/><path class="cls-7" d="m548.88 208.15-7.1-12.3-200.94 116.01h28.41l179.63-103.71zM262.57 357.05l7.11 12.3 64.42-37.19h-28.41l-43.12 24.89zM366.22 311.86l-35.14 20.3h28.41l35.14-20.3h-28.41zM305.61 311.86l-35.15 20.3h28.41l35.14-20.3h-28.4z"/><path class="cls-6" d="m392.09 311.86-35.15 20.3h45.98l35.15-20.3h-45.98z"/><path class="cls-7" d="m548.98 535.95-37.91-21.88H485.4l57.16 33 6.42-11.12z"/><path class="cls-1" d="M369.73 428.11c-1.93 0-3.7.5-5.27 1.31l16.9 9.76c-.18-6.2-5.22-11.06-11.62-11.06ZM369.73 451.68c1.85 0 3.62-.53 5.21-1.38l-16.81-9.71c.37 6.31 5.61 11.09 11.6 11.09Z"/><path class="cls-7" d="M369.73 428.11c6.4 0 11.44 4.87 11.62 11.06l11.43 6.6c.46-1.92.77-3.91.73-5.99 0-13.42-10.69-24.11-23.78-24.11-6.54 0-12.48 2.72-16.79 7.1l11.52 6.65c1.57-.81 3.34-1.31 5.27-1.31ZM369.73 451.68c-6 0-11.23-4.78-11.6-11.09l-11.4-6.58c-.46 1.86-.78 3.78-.78 5.78 0 13.42 10.69 24.11 23.78 24.11 6.63 0 12.56-2.63 16.84-6.89l-11.63-6.71c-1.59.85-3.36 1.38-5.21 1.38ZM475.92 493.78l-83.14-48c-1.03 4.34-3.17 8.21-6.21 11.24l63.68 36.76h25.68ZM358.06 439.9c0-4.49 2.56-8.5 6.4-10.47l-11.52-6.65c-3.01 3.05-5.15 6.94-6.21 11.23l11.4 6.58c-.02-.24-.07-.46-.07-.69Z"/><path class="cls-7" d="m392.78 445.78-11.43-6.6c0 .24.06.47.05.72 0 4.44-2.71 8.41-6.46 10.4l11.63 6.71c3.04-3.02 5.18-6.9 6.21-11.24ZM456.9 493.78h-25.67l35.15 20.29h25.67l-35.15-20.29z"/><path class="cls-6" d="M500.33 493.78h-25.67l35.15 20.29h25.67l-35.15-20.29z"/><path class="cls-7" d="M861.62 388.56h14.21v92.73h-14.21zM861.62 501.58h14.21v131.45h-14.21zM861.62 653.33h14.21v58.15h-14.21zM875.83 481.29h14.21v20.29h-14.21z"/><path class="cls-7" d="M873.22 632.7h14.21v20.29h-14.21zM897.46 632.7h9.22v20.29h-9.22zM552.93 740.75h14.21v147.89h-14.21zM552.93 566.8h14.21v153.66h-14.21z"/><path class="cls-6" d="M573.22 720.46h6.77v20.29h-6.77z"/><path class="cls-4" d="M508.22 720.46h30.83v20.29h-30.83z"/><path class="cls-5" d="M503.31 720.46H509v20.29h-5.69z"/><path class="cls-7" d="M559.01 720.46h14.21v20.29h-14.21zM244.23 388.56h14.21v71.94h-14.21zM244.23 678.51h14.21v32.97h-14.21zM244.23 480.79h14.21v177.42h-14.21z"/><path class="cls-8" d="M218.41 658.22h13.34v20.29h-13.34z"/><path class="cls-4" d="M256.44 658.22h30.94v20.29h-30.94z"/><path class="cls-7" d="M224.22 460.5h10.07v20.29h-10.07z"/><path class="cls-5" d="M263.62 460.5h9.83v20.29h-9.83z"/><path class="cls-7" d="M249.42 460.5h14.21v20.29h-14.21z"/><ellipse class="cls-6" cx="235.78" cy="562.92" rx="8.46" ry="12.96"/><path class="cls-7" d="M283.39 658.22h14.21v20.29h-14.21z"/><path class="cls-5" d="M323.97 658.22h7.1v20.29h-7.1z"/><path class="cls-7" d="m680.62 425.32-35.15 20.29h45.08l35.15-20.29h-45.08zM559.79 319.71c-6.67 0-11.71 5.47-11.71 11.82 0 6.67 5.47 11.82 11.71 11.82s11.71-5.47 11.71-11.82c.22-6.56-5.03-11.82-11.71-11.82Zm0 35.89c-13.13 0-23.85-10.72-23.85-24.18s10.72-24.18 23.85-24.18 23.85 10.72 23.85 24.18c.22 13.46-10.39 24.18-23.85 24.18Z"/><path class="cls-2" d="m381.41 428.11 160.25-94.12M850.66 371.01l-272.25-37.02M552.39 891.68 379.37 687.72"/><path class="cls-7" d="m843.07 449.46-13.38 7.73v36.59h13.38v-44.32zM829.69 691.82l13.38-7.72V514.07h-13.38v177.75z"/><path class="cls-5" d="M807.04 493.78h6.19v20.29h-6.19z"/><path class="cls-7" d="M816.87 493.78h13.38v20.29h-13.38zM698.79 605.61v45.06l13.19-7.62v-45.06l-13.19 7.62z"/><path class="cls-7" d="m733.08 641.95-34.29-3.31v13.24l33.11 3.2 1.18-13.13zM789.89 530.32l-36.58 45.5 9.03 9.82 37.83-47.06-10.28-8.26zM611.5 752.23l10.29 8.27 36.9-45.9-9.31-9.49-37.88 47.12zM797.24 647.57l-46.43-4.21c-1.71 4.24-3.7 8.49-5.93 12.71l51.19 4.64 1.17-13.14ZM613.48 630.9l-1.17 13.14 47.12 4.27c1.62-4.22 3.49-8.48 5.65-12.73l-51.6-4.68ZM711.98 521.8l-13.19 7.61v5.15h13.19V521.8zM698.79 583.75l13.19-7.61v-21.29h-13.19v28.9z"/><path class="cls-4" d="M703.83 534.56h6.51v20.29h-6.51z"/><path class="cls-5" d="M723.53 534.56h6.62v20.29h-6.62z"/><path class="cls-7" d="M710.34 534.56h13.19v20.29h-13.19z"/><path class="cls-6" d="M779.29 606.93h-13.16c0 1.52 0 3.05-.1 4.65-.31 5.04-1.19 10.29-2.49 15.64h13.57c1.08-5.05 1.78-10.01 2.08-14.83.12-1.88.1-3.67.1-5.47Z"/><path class="cls-5" d="M794.32 606.93h-13.16c0 1.52 0 3.05-.1 4.65-.31 5.04-1.19 10.29-2.49 15.64h13.57c1.08-5.05 1.78-10.01 2.08-14.83.12-1.88.1-3.67.1-5.47Z"/><path class="cls-7" d="M786.44 606.93h-13.16c0 1.52 0 3.05-.1 4.65-.31 5.04-1.19 10.29-2.49 15.64h13.57c1.08-5.05 1.78-10.01 2.08-14.83.12-1.88.1-3.67.1-5.47ZM671.87 623.56c11.47-18.12 26.03-32.63 41-40.88 8.14-4.49 15.72-6.75 22.29-6.75 4.5 0 8.53 1.07 11.92 3.22 7.49 4.74 11.5 14.53 11.55 27.79h13.16c-.07-17.95-6.2-31.68-17.65-38.93-12.59-7.97-29.51-6.86-47.64 3.13-16.88 9.3-33.14 25.42-45.77 45.38-11.16 17.63-17.97 35.74-20.48 52.12h13.4c2.54-14.14 8.66-29.97 18.22-45.07ZM739.1 666.12c-11.47 18.12-26.03 32.63-40.99 40.88-13.73 7.56-25.88 8.81-34.21 3.53-6.48-4.1-10.14-11.82-11.22-21.62h-13.22c1.33 14.49 7.04 26.22 17.38 32.76 5.55 3.52 11.95 5.27 18.92 5.27 8.83 0 18.59-2.81 28.72-8.39 16.88-9.3 33.14-25.42 45.77-45.37 9.48-14.96 16.13-30.84 19.36-45.96h-13.57c-3.1 12.76-8.85 26.13-16.93 38.9Z"/><path class="cls-5" d="M636.94 668.62h-13.4c-1.1 7.17-1.37 13.99-.79 20.29h13.22c-.67-6.07-.34-12.94.98-20.29Z"/><path class="cls-7" d="m711.98 707.67-13.19 7.61v23.11h13.19v-30.72z"/><path class="cls-6" d="M716.94 738.39v29.52l13.19-7.62v-21.9h-13.19z"/><path class="cls-5" d="M685.6 738.39v29.52l13.19-7.62v-21.9H685.6z"/><path class="cls-7" d="M643.1 668.62h-13.4c-1.1 7.17-1.37 13.99-.79 20.29h13.22c-.67-6.07-.34-12.94.98-20.29ZM692.19 738.39v29.52l13.19-7.62v-21.9h-13.19zM378.58 539.56h7.99v20.29h-7.99z"/><path class="cls-6" d="M341.43 539.56h7.7v20.29h-7.7z"/><path class="cls-7" d="M361.82 559.85h15.83v94.91h-15.83zM361.82 456.68h15.83v82.88h-15.83zM349.13 539.56h15.83v20.29h-15.83z"/></svg>