<?xml version="1.0" encoding="UTF-8"?><svg id="artwork" xmlns="http://www.w3.org/2000/svg" xmlns:xlink="http://www.w3.org/1999/xlink" viewBox="0 0 1120 1100"><defs><style>.cls-1,.cls-2{fill:none;}.cls-3{fill:url(#linear-gradient);}.cls-2{stroke:#fff;stroke-miterlimit:10;stroke-width:15.83px;}.cls-4{fill:#00f2d5;}.cls-5{fill:#ffde52;}.cls-6{fill:#ff3956;}.cls-7{fill:#fff;}.cls-8{fill:#12339e;}</style><linearGradient id="linear-gradient" x1="560.03" y1="921.2" x2="560.03" y2="197.81" gradientTransform="matrix(1, 0, 0, 1, 0, 0)" gradientUnits="userSpaceOnUse"><stop offset="0" stop-color="#009ee2"/><stop offset=".99" stop-color="#2d2e82"/></linearGradient></defs><path class="cls-5" d="M577,882.44c6.21,0,11.83,2.51,16.07,6.49l269.29-155.47c-.32-1.63-.48-3.31-.45-5.05,0-10.87-7.72-19.84,1.9-22.9V394.46c-9.83-3.02-2.08-12.02-1.9-22.94,0-1.72,.19-3.39,.52-5.01l-269.21-155.43c-4.26,4.04-9.95,6.54-16.22,6.54-13.42,0-24-10.69-23.78-24.11,0-13.42,10.69-24.11,23.78-24.11,13.09,0,23.78,10.91,23.78,24.11,0,1.79-.22,3.52-.58,5.2l269.11,155.37c4.27-4.12,10.03-6.67,16.38-6.67,13.09,0,23.78,10.91,23.78,24.11,0,10.87-7.06,19.84-16.68,22.9v311.11c9.62,3.11,16.68,12.19,16.68,22.88,0,13.42-10.69,24.11-23.78,24.11-6.47,0-12.24-2.53-16.5-6.6l-269.04,155.33c.39,1.71,.63,3.48,.63,5.3,0,13.42-10.69,24.11-23.78,24.11-13.42,0-24-10.69-23.78-24.11,0-13.42,10.69-24.11,23.78-24.11Z"/><path class="cls-6" d="M543,882.44c-6.21,0-11.83,2.51-16.07,6.49l-237.47-155.47c.32-1.63,.48-3.31,.45-5.05,0-10.87,7.72-19.84-1.9-22.9V394.46c9.83-3.02,2.08-12.02,1.9-22.94,0-1.72-.19-3.39-.52-5.01l237.39-155.43c4.26,4.04,9.95,6.54,16.22,6.54,13.42,0,24-10.69,23.78-24.11,0-13.42-10.69-24.11-23.78-24.11s-23.78,10.91-23.78,24.11c0,1.79,.22,3.52,.58,5.2L250.69,354.08c-4.27-4.12-10.03-6.67-16.38-6.67-13.09,0-23.78,10.91-23.78,24.11,0,10.87,7.06,19.84,16.68,22.9v311.11c-9.62,3.11-16.68,12.19-16.68,22.88,0,13.42,10.69,24.11,23.78,24.11,6.47,0,12.24-2.53,16.5-6.6l269.04,155.33c-.39,1.71-.63,3.48-.63,5.3,0,13.42,10.69,24.11,23.78,24.11s24-10.69,23.78-24.11c0-13.42-10.69-24.11-23.78-24.11Z"/><path class="cls-3" d="M868.73,711.48h0V388.56h0c9.41,0,17.04-7.63,17.04-17.04s-7.63-17.04-17.04-17.04c-6.38,0-11.87,3.54-14.79,8.73l-279.21-161.2c1.45-2.51,2.34-5.38,2.34-8.49,0-9.41-7.63-17.04-17.04-17.04s-17.04,7.63-17.04,17.04c0,3.11,.89,5.98,2.34,8.49l-279.21,161.2c-2.92-5.18-8.41-8.72-14.79-8.72-9.41,0-17.04,7.63-17.04,17.04s7.63,17.04,17.04,17.04v322.91c-9.41,0-17.04,7.63-17.04,17.04s7.63,17.04,17.04,17.04c6.41,0,11.92-3.58,14.84-8.81l279.16,161.17c-1.45,2.51-2.34,5.38-2.34,8.49,0,9.41,7.63,17.04,17.04,17.04s17.04-7.63,17.04-17.04c0-3.11-.89-5.98-2.34-8.49l279.16-161.17c2.91,5.23,8.43,8.81,14.84,8.81,9.41,0,17.04-7.63,17.04-17.04s-7.63-17.04-17.04-17.04Z"/><path class="cls-7" d="M556.97,685.8v-61.33l22.79-14.02c2.85-1.76,6.53,.3,6.53,3.65v49.03c0,3.55-1.89,6.83-4.97,8.61l-24.34,14.05Z"/><path class="cls-7" d="M556.97,845.84v-61.33l22.79-14.02c2.85-1.76,6.53,.3,6.53,3.65v49.03c0,3.55-1.89,6.83-4.97,8.61l-24.34,14.05Z"/><path class="cls-7" d="M251.33,716.74c-6.65,0-11.67,5.45-11.67,11.78,0,6.65,5.45,11.78,11.67,11.78s11.67-5.45,11.67-11.78c.22-6.55-5.02-11.78-11.67-11.78Zm0,35.78c-13.09,0-23.78-10.69-23.78-24.11s10.69-24.11,23.78-24.11,23.78,10.69,23.78,24.11c.22,13.42-10.36,24.11-23.78,24.11Z"/><path class="cls-7" d="M868.72,716.74c-6.65,0-11.67,5.45-11.67,11.78,0,6.65,5.45,11.78,11.67,11.78s11.67-5.45,11.67-11.78c.22-6.55-5.02-11.78-11.67-11.78Zm0,35.78c-13.09,0-23.78-10.69-23.78-24.11s10.69-24.11,23.78-24.11,23.78,10.69,23.78,24.11c.22,13.42-10.36,24.11-23.78,24.11Z"/><path class="cls-7" d="M251.33,359.85c-6.65,0-11.67,5.45-11.67,11.78,0,6.65,5.45,11.78,11.67,11.78s11.67-5.45,11.67-11.78c.22-6.55-5.02-11.78-11.67-11.78Zm0,35.78c-13.09,0-23.78-10.69-23.78-24.11s10.69-24.11,23.78-24.11,23.78,10.69,23.78,24.11c.22,13.42-10.36,24.11-23.78,24.11Z"/><path class="cls-7" d="M369.73,662.17c-6.65,0-11.67,5.45-11.67,11.78,0,6.65,5.45,11.78,11.67,11.78s11.67-5.45,11.67-11.78c.22-6.55-5.02-11.78-11.67-11.78Zm0,35.78c-13.09,0-23.78-10.69-23.78-24.11s10.69-24.11,23.78-24.11,23.78,10.69,23.78,24.11c.22,13.42-10.36,24.11-23.78,24.11Z"/><path class="cls-7" d="M868.72,359.85c-6.65,0-11.67,5.45-11.67,11.78,0,6.65,5.45,11.78,11.67,11.78s11.67-5.45,11.67-11.78c.22-6.55-5.02-11.78-11.67-11.78Zm0,35.78c-13.09,0-23.78-10.69-23.78-24.11s10.69-24.11,23.78-24.11,23.78,10.69,23.78,24.11c.22,13.42-10.36,24.11-23.78,24.11Z"/><path class="cls-7" d="M560.03,894.88c-6.65,0-11.67,5.45-11.67,11.78,0,6.65,5.45,11.78,11.67,11.78s11.67-5.45,11.67-11.78c.22-6.55-5.02-11.78-11.67-11.78Zm0,35.78c-13.09,0-23.78-10.69-23.78-24.11s10.69-24.11,23.78-24.11,23.78,10.69,23.78,24.11c.22,13.42-10.36,24.11-23.78,24.11Z"/><path class="cls-7" d="M560.03,538.07c-6.65,0-11.67,5.45-11.67,11.78,0,6.65,5.45,11.78,11.67,11.78s11.67-5.45,11.67-11.78c.22-6.55-5.02-11.78-11.67-11.78Zm0,35.78c-13.09,0-23.78-10.69-23.78-24.11s10.69-24.11,23.78-24.11,23.78,10.69,23.78,24.11c.22,13.42-10.36,24.11-23.78,24.11Z"/><path class="cls-7" d="M560.03,181.84c-6.65,0-11.67,5.45-11.67,11.78,0,6.65,5.45,11.78,11.67,11.78s11.67-5.45,11.67-11.78c.22-6.55-5.02-11.78-11.67-11.78Zm0,35.78c-13.09,0-23.78-10.69-23.78-24.11s10.69-24.11,23.78-24.11,23.78,10.69,23.78,24.11c.22,13.42-10.36,24.11-23.78,24.11Z"/><polygon class="cls-7" points="578.28 195.85 571.18 208.15 700.13 282.6 728.54 282.6 578.28 195.85"/><polygon class="cls-7" points="857.49 357.05 763.69 302.9 735.28 302.9 850.39 369.35 857.49 357.05"/><polygon class="cls-7" points="753.41 282.6 725 282.6 760.15 302.9 788.56 302.9 753.41 282.6"/><polygon class="cls-8" points="773.23 282.6 753.23 282.6 788.38 302.9 808.37 302.9 773.23 282.6"/><polygon class="cls-4" points="701.34 282.6 672.93 282.6 708.08 302.9 736.49 302.9 701.34 282.6"/><polygon class="cls-7" points="269.72 730.61 262.62 742.91 328.54 780.97 356.95 780.97 269.72 730.61"/><polygon class="cls-7" points="548.88 891.78 392.1 801.26 363.69 801.26 541.78 904.08 548.88 891.78"/><polygon class="cls-7" points="380.63 780.97 352.22 780.97 387.37 801.26 415.77 801.26 380.63 780.97"/><polygon class="cls-8" points="391.39 780.97 374.22 780.97 409.37 801.26 426.54 801.26 391.39 780.97"/><polygon class="cls-5" points="321.8 780.97 283.39 780.97 318.54 801.26 356.95 801.26 321.8 780.97"/><polygon class="cls-7" points="857.44 742.91 850.34 730.61 675.88 831.33 704.29 831.33 857.44 742.91"/><polygon class="cls-7" points="571.18 891.78 578.28 904.08 669.15 851.62 640.74 851.62 571.18 891.78"/><polygon class="cls-7" points="691.13 831.33 655.99 851.62 684.39 851.62 719.54 831.33 691.13 831.33"/><polygon class="cls-4" points="718.35 831.33 683.2 851.62 711.61 851.62 746.76 831.33 718.35 831.33"/><polygon class="cls-7" points="856.52 385.98 850.1 374.87 762.71 425.32 788.38 425.32 856.52 385.98"/><polygon class="cls-7" points="571.09 535.95 577.5 547.07 753.23 445.61 727.56 445.61 571.09 535.95"/><polygon class="cls-7" points="796.51 425.32 761.36 445.61 787.03 445.61 822.18 425.32 796.51 425.32"/><polygon class="cls-5" points="667.97 425.32 632.82 445.61 677.9 445.61 713.04 425.32 667.97 425.32"/><polygon class="cls-7" points="548.88 208.15 541.78 195.85 340.84 311.86 369.25 311.86 548.88 208.15"/><polygon class="cls-7" points="262.57 357.05 269.68 369.35 334.1 332.16 305.69 332.16 262.57 357.05"/><polygon class="cls-7" points="366.22 311.86 331.08 332.16 359.49 332.16 394.63 311.86 366.22 311.86"/><polygon class="cls-7" points="305.61 311.86 270.46 332.16 298.87 332.16 334.01 311.86 305.61 311.86"/><polygon class="cls-6" points="392.09 311.86 356.94 332.16 402.92 332.16 438.07 311.86 392.09 311.86"/><polygon class="cls-7" points="548.98 535.95 511.07 514.07 485.4 514.07 542.56 547.07 548.98 535.95"/><path class="cls-1" d="M369.73,428.11c-1.93,0-3.7,.5-5.27,1.31l16.9,9.76c-.18-6.2-5.22-11.06-11.62-11.06Z"/><path class="cls-1" d="M369.73,451.68c1.85,0,3.62-.53,5.21-1.38l-16.81-9.71c.37,6.31,5.61,11.09,11.6,11.09Z"/><path class="cls-7" d="M369.73,428.11c6.4,0,11.44,4.87,11.62,11.06l11.43,6.6c.46-1.92,.77-3.91,.73-5.99,0-13.42-10.69-24.11-23.78-24.11-6.54,0-12.48,2.72-16.79,7.1l11.52,6.65c1.57-.81,3.34-1.31,5.27-1.31Z"/><path class="cls-7" d="M369.73,451.68c-6,0-11.23-4.78-11.6-11.09l-11.4-6.58c-.46,1.86-.78,3.78-.78,5.78,0,13.42,10.69,24.11,23.78,24.11,6.63,0,12.56-2.63,16.84-6.89l-11.63-6.71c-1.59,.85-3.36,1.38-5.21,1.38Z"/><path class="cls-7" d="M475.92,493.78l-83.14-48c-1.03,4.34-3.17,8.21-6.21,11.24l63.68,36.76h25.68Z"/><path class="cls-7" d="M358.06,439.9c0-4.49,2.56-8.5,6.4-10.47l-11.52-6.65c-3.01,3.05-5.15,6.94-6.21,11.23l11.4,6.58c-.02-.24-.07-.46-.07-.69Z"/><path class="cls-7" d="M392.78,445.78l-11.43-6.6c0,.24,.06,.47,.05,.72,0,4.44-2.71,8.41-6.46,10.4l11.63,6.71c3.04-3.02,5.18-6.9,6.21-11.24Z"/><polygon class="cls-7" points="456.9 493.78 431.23 493.78 466.38 514.07 492.05 514.07 456.9 493.78"/><polygon class="cls-6" points="500.33 493.78 474.66 493.78 509.81 514.07 535.48 514.07 500.33 493.78"/><rect class="cls-7" x="861.62" y="388.56" width="14.21" height="92.73"/><rect class="cls-7" x="861.62" y="501.58" width="14.21" height="131.45"/><rect class="cls-7" x="861.62" y="653.33" width="14.21" height="58.15"/><rect class="cls-7" x="875.83" y="481.29" width="14.21" height="20.29"/><rect class="cls-7" x="873.22" y="632.7" width="14.21" height="20.29"/><rect class="cls-7" x="897.46" y="632.7" width="9.22" height="20.29"/><rect class="cls-7" x="552.93" y="740.75" width="14.21" height="147.89"/><rect class="cls-7" x="552.93" y="566.8" width="14.21" height="153.66"/><rect class="cls-6" x="573.22" y="720.46" width="6.77" height="20.29"/><rect class="cls-4" x="508.22" y="720.46" width="30.83" height="20.29"/><rect class="cls-5" x="503.31" y="720.46" width="5.69" height="20.29"/><rect class="cls-7" x="559.01" y="720.46" width="14.21" height="20.29"/><rect class="cls-7" x="244.23" y="388.56" width="14.21" height="71.94"/><rect class="cls-7" x="244.23" y="678.51" width="14.21" height="32.97"/><rect class="cls-7" x="244.23" y="480.79" width="14.21" height="177.42"/><rect class="cls-8" x="218.41" y="658.22" width="13.34" height="20.29"/><rect class="cls-4" x="256.44" y="658.22" width="30.94" height="20.29"/><rect class="cls-7" x="224.22" y="460.5" width="10.07" height="20.29"/><rect class="cls-5" x="263.62" y="460.5" width="9.83" height="20.29"/><rect class="cls-7" x="249.42" y="460.5" width="14.21" height="20.29"/><ellipse class="cls-6" cx="235.78" cy="562.92" rx="8.46" ry="12.96"/><rect class="cls-7" x="283.39" y="658.22" width="14.21" height="20.29"/><rect class="cls-5" x="323.97" y="658.22" width="7.1" height="20.29"/><polygon class="cls-7" points="680.62 425.32 645.47 445.61 690.55 445.61 725.7 425.32 680.62 425.32"/><path class="cls-7" d="M559.79,319.71c-6.67,0-11.71,5.47-11.71,11.82,0,6.67,5.47,11.82,11.71,11.82s11.71-5.47,11.71-11.82c.22-6.56-5.03-11.82-11.71-11.82Zm0,35.89c-13.13,0-23.85-10.72-23.85-24.18s10.72-24.18,23.85-24.18,23.85,10.72,23.85,24.18c.22,13.46-10.39,24.18-23.85,24.18Z"/><line class="cls-2" x1="381.41" y1="428.11" x2="541.66" y2="333.99"/><line class="cls-2" x1="850.66" y1="371.01" x2="578.41" y2="333.99"/><line class="cls-2" x1="552.39" y1="891.68" x2="379.37" y2="687.72"/><polygon class="cls-7" points="843.07 449.46 829.69 457.19 829.69 493.78 843.07 493.78 843.07 449.46"/><polygon class="cls-7" points="829.69 691.82 843.07 684.1 843.07 514.07 829.69 514.07 829.69 691.82"/><rect class="cls-5" x="807.04" y="493.78" width="6.19" height="20.29"/><rect class="cls-7" x="816.87" y="493.78" width="13.38" height="20.29"/><g><g><polygon class="cls-7" points="698.79 605.61 698.79 650.67 711.98 643.05 711.98 597.99 698.79 605.61"/><polygon class="cls-7" points="733.08 641.95 698.79 638.64 698.79 651.88 731.9 655.08 733.08 641.95"/></g><polygon class="cls-7" points="789.89 530.32 753.31 575.82 762.34 585.64 800.17 538.58 789.89 530.32"/><polygon class="cls-7" points="611.5 752.23 621.79 760.5 658.69 714.6 649.38 705.11 611.5 752.23"/><path class="cls-7" d="M797.24,647.57l-46.43-4.21c-1.71,4.24-3.7,8.49-5.93,12.71l51.19,4.64,1.17-13.14Z"/><path class="cls-7" d="M613.48,630.9l-1.17,13.14,47.12,4.27c1.62-4.22,3.49-8.48,5.65-12.73l-51.6-4.68Z"/><polygon class="cls-7" points="711.98 521.8 698.79 529.41 698.79 534.56 711.98 534.56 711.98 521.8"/><polygon class="cls-7" points="698.79 583.75 711.98 576.14 711.98 554.85 698.79 554.85 698.79 583.75"/><rect class="cls-4" x="703.83" y="534.56" width="6.51" height="20.29"/><rect class="cls-5" x="723.53" y="534.56" width="6.62" height="20.29"/><rect class="cls-7" x="710.34" y="534.56" width="13.19" height="20.29"/><path class="cls-6" d="M779.29,606.93h-13.16c0,1.52,0,3.05-.1,4.65-.31,5.04-1.19,10.29-2.49,15.64h13.57c1.08-5.05,1.78-10.01,2.08-14.83,.12-1.88,.1-3.67,.1-5.47Z"/><path class="cls-5" d="M794.32,606.93h-13.16c0,1.52,0,3.05-.1,4.65-.31,5.04-1.19,10.29-2.49,15.64h13.57c1.08-5.05,1.78-10.01,2.08-14.83,.12-1.88,.1-3.67,.1-5.47Z"/><path class="cls-7" d="M786.44,606.93h-13.16c0,1.52,0,3.05-.1,4.65-.31,5.04-1.19,10.29-2.49,15.64h13.57c1.08-5.05,1.78-10.01,2.08-14.83,.12-1.88,.1-3.67,.1-5.47Z"/><path class="cls-7" d="M671.87,623.56c11.47-18.12,26.03-32.63,41-40.88,8.14-4.49,15.72-6.75,22.29-6.75,4.5,0,8.53,1.07,11.92,3.22,7.49,4.74,11.5,14.53,11.55,27.79h13.16c-.07-17.95-6.2-31.68-17.65-38.93-12.59-7.97-29.51-6.86-47.64,3.13-16.88,9.3-33.14,25.42-45.77,45.38-11.16,17.63-17.97,35.74-20.48,52.12h13.4c2.54-14.14,8.66-29.97,18.22-45.07Z"/><path class="cls-7" d="M739.1,666.12h0c-11.47,18.12-26.03,32.63-40.99,40.88-13.73,7.56-25.88,8.81-34.21,3.53-6.48-4.1-10.14-11.82-11.22-21.62h-13.22c1.33,14.49,7.04,26.22,17.38,32.76,5.55,3.52,11.95,5.27,18.92,5.27,8.83,0,18.59-2.81,28.72-8.39,16.88-9.3,33.14-25.42,45.77-45.37,9.48-14.96,16.13-30.84,19.36-45.96h-13.57c-3.1,12.76-8.85,26.13-16.93,38.9Z"/><path class="cls-5" d="M636.94,668.62h-13.4c-1.1,7.17-1.37,13.99-.79,20.29h13.22c-.67-6.07-.34-12.94,.98-20.29Z"/><polygon class="cls-7" points="711.98 707.67 698.79 715.28 698.79 738.39 711.98 738.39 711.98 707.67"/><polygon class="cls-6" points="716.94 738.39 716.94 767.91 730.13 760.29 730.13 738.39 716.94 738.39"/><polygon class="cls-5" points="685.6 738.39 685.6 767.91 698.79 760.29 698.79 738.39 685.6 738.39"/><path class="cls-7" d="M643.1,668.62h-13.4c-1.1,7.17-1.37,13.99-.79,20.29h13.22c-.67-6.07-.34-12.94,.98-20.29Z"/><polygon class="cls-7" points="692.19 738.39 692.19 767.91 705.38 760.29 705.38 738.39 692.19 738.39"/></g><rect class="cls-7" x="378.58" y="539.56" width="7.99" height="20.29"/><rect class="cls-6" x="341.43" y="539.56" width="7.7" height="20.29"/><rect class="cls-7" x="361.82" y="559.85" width="15.83" height="94.91"/><rect class="cls-7" x="361.82" y="456.68" width="15.83" height="82.88"/><rect class="cls-7" x="349.13" y="539.56" width="15.83" height="20.29"/></svg>